<?xml version="1.0" encoding="utf-8"?>
<!-- Generator: Adobe Illustrator 19.0.1, SVG Export Plug-In . SVG Version: 6.00 Build 0)  -->
<!DOCTYPE svg PUBLIC "-//W3C//DTD SVG 1.1//EN" "http://www.w3.org/Graphics/SVG/1.1/DTD/svg11.dtd">
<svg version="1.1" id="Capa_1" xmlns="http://www.w3.org/2000/svg" xmlns:xlink="http://www.w3.org/1999/xlink" x="0px" y="0px"
	 width="77px" height="37px" viewBox="0 0 77 37" style="enable-background:new 0 0 77 37;" xml:space="preserve">
<style type="text/css">
	.st0{fill:#fff;}
</style>
<g>
	<path class="st0" d="M74.9,19h-0.1v0.9h-0.3v-2.1h0.6c0.2,0,0.3,0.1,0.5,0.2c0.1,0.1,0.1,0.2,0.1,0.4c0,0.1,0,0.3-0.1,0.4
		c-0.1,0.1-0.2,0.2-0.3,0.2c0.1,0,0.1,0.1,0.1,0.1c0,0,0.1,0.1,0.1,0.2l0.3,0.6h-0.4l-0.3-0.5C75.1,19.2,75,19.1,74.9,19z M75,18.1
		h-0.2v0.6H75c0.1,0,0.2,0,0.3-0.1c0.1-0.1,0.1-0.1,0.1-0.2c0-0.1,0-0.2-0.1-0.2C75.2,18.1,75.1,18.1,75,18.1z"/>
	<path class="st0" d="M75.1,20.8c-1,0-1.9-0.9-1.9-1.9c0-1,0.8-1.9,1.9-1.9c1,0,1.9,0.9,1.9,1.9C77,19.9,76.2,20.8,75.1,20.8z
		 M75.1,17.2c-0.9,0-1.6,0.7-1.6,1.6c0,0.9,0.7,1.6,1.6,1.6c0.9,0,1.6-0.7,1.6-1.6C76.7,18,76,17.2,75.1,17.2z"/>
	<g>
		<path class="st0" d="M24.6,34.9l-0.3,0.8h-0.6l1.5-3.5h0.6l1.5,3.5h-0.6l-0.3-0.8H24.6z M26.1,34.4l-0.6-1.4l-0.6,1.4H26.1z"/>
		<path class="st0" d="M28.3,36.7c-0.2,0-0.5-0.1-0.6-0.3l0.3-0.4c0.1,0.1,0.2,0.2,0.4,0.2c0.1,0,0.2,0,0.3-0.1
			c0.1-0.1,0.1-0.2,0.1-0.3c0,0-0.4-0.9-1.1-2.7h0.6l0.8,1.9l0.8-1.9h0.6L29,36.2c-0.1,0.2-0.2,0.3-0.3,0.4
			C28.6,36.7,28.4,36.7,28.3,36.7z"/>
		<path class="st0" d="M33,34.5v-1.4h0.5v2.6H33v-0.5c-0.1,0.2-0.2,0.3-0.4,0.4c-0.2,0.1-0.3,0.1-0.5,0.1c-0.3,0-0.5-0.1-0.7-0.3
			c-0.2-0.2-0.3-0.4-0.3-0.8v-1.6h0.5v1.4c0,0.5,0.2,0.7,0.6,0.7c0.2,0,0.4-0.1,0.5-0.2C32.9,34.9,33,34.7,33,34.5z"/>
		<path class="st0" d="M34.9,35.4c-0.2-0.3-0.4-0.6-0.4-1c0-0.4,0.1-0.7,0.4-1c0.3-0.2,0.6-0.4,0.9-0.4c0.3,0,0.6,0.1,0.8,0.4V32
			h0.5v3.7h-0.5v-0.4c-0.2,0.3-0.5,0.4-0.9,0.4C35.4,35.7,35.1,35.6,34.9,35.4z M35.1,34.4c0,0.3,0.1,0.5,0.2,0.6
			c0.2,0.2,0.3,0.2,0.6,0.2c0.2,0,0.4-0.1,0.5-0.2c0.2-0.2,0.2-0.4,0.2-0.6c0-0.3-0.1-0.5-0.2-0.6c-0.2-0.2-0.3-0.3-0.6-0.3
			c-0.2,0-0.4,0.1-0.6,0.3C35.2,33.9,35.1,34.1,35.1,34.4z"/>
		<path class="st0" d="M40.5,35.7H40v-0.4c-0.2,0.3-0.5,0.4-0.9,0.4c-0.3,0-0.5-0.1-0.7-0.2c-0.2-0.2-0.3-0.4-0.3-0.6
			c0-0.3,0.1-0.5,0.3-0.6c0.2-0.1,0.4-0.2,0.8-0.2H40V34c0-0.3-0.2-0.5-0.6-0.5c-0.2,0-0.5,0.1-0.8,0.3l-0.2-0.3
			c0.3-0.3,0.7-0.4,1.1-0.4c0.3,0,0.6,0.1,0.8,0.2c0.2,0.2,0.3,0.4,0.3,0.7V35.7z M39.9,34.7v-0.2h-0.6c-0.4,0-0.6,0.1-0.6,0.4
			c0,0.1,0,0.2,0.1,0.3c0.1,0.1,0.2,0.1,0.4,0.1c0.2,0,0.3,0,0.5-0.1C39.9,35,39.9,34.9,39.9,34.7z"/>
		<path class="st0" d="M43.9,35.7h-0.5V32h0.5V35.7z"/>
		<path class="st0" d="M47.6,34.6h-2c0,0.2,0.1,0.3,0.3,0.5c0.2,0.1,0.3,0.2,0.5,0.2c0.3,0,0.6-0.1,0.7-0.3l0.3,0.3
			c-0.3,0.3-0.6,0.4-1.1,0.4c-0.4,0-0.7-0.1-0.9-0.4c-0.3-0.2-0.4-0.6-0.4-1c0-0.4,0.1-0.7,0.4-1c0.3-0.2,0.6-0.4,0.9-0.4
			c0.4,0,0.7,0.1,0.9,0.3c0.2,0.2,0.4,0.5,0.4,0.9V34.6z M45.5,34.2H47c0-0.2-0.1-0.4-0.2-0.5s-0.3-0.2-0.5-0.2
			c-0.2,0-0.4,0.1-0.5,0.2C45.6,33.8,45.5,34,45.5,34.2z"/>
		<path class="st0" d="M51,33.1v2.3c0,0.5-0.1,0.8-0.4,1c-0.3,0.2-0.6,0.3-1,0.3c-0.4,0-0.7-0.1-1.1-0.4l0.3-0.4
			c0.3,0.2,0.5,0.3,0.8,0.3c0.3,0,0.5-0.1,0.6-0.2c0.2-0.1,0.2-0.4,0.2-0.6v-0.3c-0.1,0.2-0.2,0.3-0.4,0.4c-0.2,0.1-0.3,0.1-0.5,0.1
			c-0.3,0-0.6-0.1-0.9-0.4c-0.2-0.2-0.3-0.5-0.3-0.9c0-0.4,0.1-0.7,0.3-0.9c0.2-0.2,0.5-0.4,0.9-0.4c0.3,0,0.6,0.1,0.8,0.4v-0.4H51z
			 M48.9,34.3c0,0.2,0.1,0.4,0.2,0.6c0.1,0.2,0.3,0.2,0.5,0.2c0.2,0,0.4-0.1,0.5-0.2c0.1-0.2,0.2-0.3,0.2-0.6c0-0.2-0.1-0.4-0.2-0.6
			c-0.1-0.2-0.3-0.2-0.5-0.2c-0.2,0-0.4,0.1-0.5,0.2C49,33.9,48.9,34.1,48.9,34.3z"/>
		<path class="st0" d="M54.3,35.7h-0.5v-0.4c-0.2,0.3-0.5,0.4-0.9,0.4c-0.3,0-0.5-0.1-0.7-0.2C52,35.3,52,35.1,52,34.9
			c0-0.3,0.1-0.5,0.3-0.6c0.2-0.1,0.4-0.2,0.8-0.2h0.7V34c0-0.3-0.2-0.5-0.6-0.5c-0.2,0-0.5,0.1-0.8,0.3l-0.2-0.3
			c0.3-0.3,0.7-0.4,1.1-0.4c0.3,0,0.6,0.1,0.8,0.2c0.2,0.2,0.3,0.4,0.3,0.7V35.7z M53.7,34.7v-0.2h-0.6c-0.4,0-0.6,0.1-0.6,0.4
			c0,0.1,0,0.2,0.1,0.3c0.1,0.1,0.2,0.1,0.4,0.1c0.2,0,0.3,0,0.5-0.1S53.7,34.9,53.7,34.7z"/>
		<path class="st0" d="M56,35.7h-0.5V32H56V35.7z"/>
	</g>
	<g>
		<path class="st0" d="M15.7,0C7.2,0,7.1,10,7.1,10h4.2c0,0,0.6-5.6,5.3-5.6l2.7-0.1c0,0,3.4,0.7,3.4-4.3H15.7z"/>
		<path class="st0" d="M13.1,10h7.6c8.3,0,7.9-10,7.9-10h-4.2c0,0,0.1,5.8-4.5,5.8c0,0-2.7,0-2.7,0C14.9,5.8,13.1,8,13.1,10L13.1,10
			z"/>
	</g>
	<g>
		<g>
			<path class="st0" d="M0,12.3h4v3.6H0V12.3z M0,18.2h4v12.4H0V18.2z"/>
			<path class="st0" d="M7.1,12.3h4.2v12.1c0,1.8,0.7,2.9,2.3,2.9c1.7,0,2.3-1.1,2.3-2.9V12.3h4.2v11.4c0,4.4-2.5,6.8-6.5,6.8
				c-4,0-6.5-2.4-6.5-6.8V12.3z"/>
			<path class="st0" d="M23,19.9c0-1.3,0-2.1-0.1-2.8h3.7c0,0.8,0.1,1.6,0.1,2.4h0.1c0.8-1.4,1.4-2.6,3.7-2.6H31v3.7
				c-0.4-0.1-0.8-0.2-1.4-0.2c-2.3,0-2.6,2.1-2.6,4v6.1h-4V19.9z"/>
			<path class="st0" d="M33.1,12.3h4v3.6h-4V12.3z M33.1,18.2h4v12.4h-4V18.2z"/>
			<path class="st0" d="M47.9,20.4c-1.1-0.4-2.1-0.7-3.2-0.7c-1,0-1.5,0.5-1.5,1c0,0.8,0.6,1.1,2.8,1.9c1.4,0.5,2.8,1.4,2.8,3.9
				c0,3-2.2,4.1-4.9,4.1c-1.2,0-3-0.1-4.4-0.6l0.1-3.1c1,0.6,2.2,0.9,3.3,0.9c1.9,0,2-0.7,2-1.3c0-0.6-1-0.8-2.8-1.6
				c-1.4-0.6-2.8-1.7-2.8-4.1c0-1.4,1-4,5-4c1.7,0,3,0.3,3.7,0.5L47.9,20.4z"/>
			<path class="st0" d="M49.7,17.1H52v-2.2c0-2.1,0.8-4,4.2-4c1.4,0,2.2,0.2,2.6,0.3L58.7,14c-0.3-0.1-0.7-0.2-1-0.2
				c-1.2,0-1.6,0.4-1.6,1.8v1.4h4.8v2.8h-4.8v10.6h-4V19.9h-2.3V17.1z"/>
			<path class="st0" d="M67.3,31.7c-1,3.1-2.4,4.5-4.6,4.5c-0.7,0-1.7-0.1-2.4-0.3l0.1-3c0.3,0.2,0.7,0.3,1.3,0.3c1.4,0,2-1.5,2-2.7
				L59,17.1h4.2l2.5,9.1h0.1l2.3-9.1H72L67.3,31.7z"/>
		</g>
	</g>
</g>
</svg>
