<?xml version="1.0" encoding="utf-8"?>
<!-- Generator: Adobe Illustrator 19.2.1, SVG Export Plug-In . SVG Version: 6.00 Build 0)  -->
<svg version="1.1" id="Capa_1" xmlns="http://www.w3.org/2000/svg" xmlns:xlink="http://www.w3.org/1999/xlink" x="0px" y="0px"
	 viewBox="0 0 190 70" style="enable-background:new 0 0 190 70;" xml:space="preserve">
<style type="text/css">
	.st0{fill:#144270;}
	.st1{fill:#E64D56;}
	.st2{fill:#FFFFFF;}
</style>
<g>
	<g>
		<path class="st0" d="M101.7,58.4c-1.3-0.3-3,0.1-3.8,0.1c-0.6,0-1-0.1-1.5-0.1c-0.7,0-1,0-1.2,0.1c-0.4,0.3-2.6,11-2.5,11.1
			c0,0.1,0.7,0.1,1.4,0.1c0.7,0,1.4,0,1.4-0.1c0.2-0.1,1.2-6.2,1.6-7.8c0.4-1.5,0.6-1.8,0.7-1.8c0-0.1,1.3-0.7,2-0.4
			c0.8,0.2,0.8,1.2,0.6,2.4c-0.2,1.2-0.6,1.9-1.2,2.2c-0.5,0.3-1.5,0-1.6,0.1c-0.1,0.1-0.1,0.3-0.2,0.5c0,0.2-0.1,0.4,0,0.5
			c0,0.1,0.6,0.4,1.8,0.4c1.7,0,3.7-1.5,4.3-3.7C104.2,59.5,103,58.8,101.7,58.4"/>
		<path class="st0" d="M89.7,58.3c-0.9,0-1.7,0.1-2.9,0.7c-0.2,0.1-0.3,0.2-0.4,0.2c-0.1,0-0.3-0.2-0.3-0.2
			c-0.9-0.8-1.7-0.7-2.3-0.7c-0.7,0-2.3,0.5-2.8,0.4c-0.6-0.1-1-0.2-1.5-0.2c-0.5,0-1,0-1.2,0.1c-0.1,0.1-0.4,1.4-0.4,1.6
			c-0.8,4-1.2,5.4-1.1,5.5c0.1,0.1,0.8,0.1,1.5,0.1c0.6,0,1.2,0,1.3-0.1c0.1-0.1,0.4-2,0.7-3.3c0.3-1.2,0.7-2.2,1.6-2.4
			c0.9-0.2,1.6,0.3,1.7,0.6c0.1,0.3,0,1-0.1,1.6c-0.3,1.5-0.9,3.4-0.8,3.5c0,0,0.6,0.1,1.2,0.1h0.3c0.6,0,1.2,0,1.3-0.1
			c0.1-0.1,0.4-2,0.7-3.3c0.3-1.2,0.7-2.2,1.6-2.4c0.9-0.2,1.6,0.3,1.8,0.6c0.1,0.3,0,1-0.1,1.6c-0.3,1.5-0.9,3.4-0.8,3.5
			c0.1,0.1,0.6,0.1,1.3,0.1c0.7,0,1.4,0,1.4-0.1c0,0,0.3-1.2,0.6-2.5c0.5-2,0.7-3.5,0-4.1C91.3,58.3,90.4,58.3,89.7,58.3"/>
		<path class="st0" d="M62.9,58.3c-0.7,0-1.9,0.4-2.5,0.4c-0.5,0,0.9-4.4,0.7-4.6C61,54,60.4,54,59.6,54c-0.7,0-1.3,0-1.4,0.1
			c-0.2,0.2-0.4,1.5-1.3,6c-0.8,4-1.2,5.4-1.1,5.5c0.1,0.1,0.8,0.1,1.5,0.1c0.6,0,1.2,0,1.3-0.1c0.1-0.1,0.4-2,0.7-3.3
			c0.3-1.2,0.7-2.2,1.6-2.4c0.9-0.2,1.6,0.3,1.8,0.6c0.1,0.3,0,1-0.1,1.6c-0.3,1.5-0.9,3.4-0.8,3.5c0.1,0.1,0.6,0.1,1.3,0.1
			c0.7,0,1.4,0,1.4-0.1c0,0,0.3-1.2,0.6-2.5c0.5-2,0.7-3.5,0-4.1C64.3,58.2,63.5,58.3,62.9,58.3"/>
		<path class="st0" d="M70.1,58.5c-1.4,0.3-2.9,1-3.3,3.6c-0.4,2.3,0.8,3.3,2.5,3.6c1.7,0.3,4.9-0.3,5-0.4c0.1-0.1,0.2-0.4,0.2-0.7
			c0-0.2,0.1-0.7,0-0.8c-0.1-0.1-2.4,0.7-4,0.3c-0.5-0.1-1.1-0.7-1-1.5c0,0,0-0.1,0-0.1c0,0,0.5,0,2,0c1.8,0,4,0,4.1,0
			c0.1-0.1,0.5-1.6-0.1-2.7C75.1,58.4,72.1,58,70.1,58.5 M73.5,61.3c0,0-3.4,0.1-3.5,0c-0.1-0.1,0.2-1.3,1.4-1.6
			C73.8,59.2,73.5,61.2,73.5,61.3"/>
		<path class="st0" d="M27.9,58.4c-0.5,0-1,0.1-1.5,0.1c-0.8,0-2.3-0.4-3.7-0.1c-1.5,0.3-2.9,1.1-3.4,3.6c-0.4,2.3,0.9,3.7,2.6,3.7
			c1.2,0,1.9-0.3,2-0.4c0.1-0.1,0.1-0.2,0.2-0.5c0.1-0.2,0.1-0.5,0-0.5c-0.1-0.1-1.2,0.2-1.6-0.1c-0.5-0.3-0.5-0.9-0.2-2.2
			c0.3-1.2,0.8-2.2,1.6-2.4c0.9-0.2,1.8,0.4,1.8,0.4c0,0.1,0.2,0.3-0.1,1.8c-0.3,1.5-1,3.6-0.9,3.7c0.1,0.1,0.7,0.1,1.4,0.1
			c0.7,0,1.4,0,1.4-0.1c0.1-0.1,1.7-6.8,1.4-7.1C28.9,58.5,28.6,58.4,27.9,58.4"/>
		<path class="st0" d="M44,58.5c-1.4,0.3-2.9,1-3.3,3.6c-0.4,2.3,0.8,3.3,2.5,3.6c1.7,0.3,4.9-0.3,5-0.4c0.1-0.1,0.2-0.4,0.2-0.7
			c0-0.2,0.1-0.7,0-0.8c-0.1-0.1-2.4,0.7-4,0.3c-0.5-0.1-1.1-0.7-1-1.5c0,0,0-0.1,0-0.1c0,0,0.5,0,2,0c1.8,0,4,0,4.1,0
			c0.1-0.1,0.5-1.6-0.1-2.7C48.9,58.4,45.9,58,44,58.5 M47.3,61.3c0,0-3.4,0.1-3.5,0c-0.1-0.1,0.2-1.3,1.4-1.6
			C47.6,59.2,47.3,61.2,47.3,61.3"/>
		<path class="st0" d="M129.7,58.5c-1.4,0.3-2.9,1-3.3,3.6c-0.4,2.3,0.8,3.3,2.5,3.6c1.7,0.3,4.9-0.3,5-0.4c0.1-0.1,0.2-0.4,0.2-0.7
			c0-0.2,0.1-0.7,0-0.8c-0.1-0.1-2.4,0.7-4,0.3c-0.5-0.1-1.1-0.7-1-1.5c0,0,0.3-1.4,0.3-1.5c0.1-0.4,0.4-1.2,1.4-1.4
			c2.1-0.4,2,1,2.1,1.1c0,0,0.6,0.1,1.2,0.1c0.7,0,1.3,0,1.3,0c0,0,0.1-0.5-0.3-1.1C134.7,58.4,131.7,58,129.7,58.5"/>
		<path class="st0" d="M143.9,58.4c-1.3-0.3-3,0.1-3.8,0.1c-0.6,0-1-0.1-1.5-0.1c-0.7,0-1,0-1.2,0.1c-0.2,0.1-0.6,1.7-0.9,3.4
			c-0.4,1.8-0.8,3.6-0.8,3.7c0,0.1,0.7,0.1,1.4,0.1c0.7,0,1.3,0,1.4-0.1c0.1-0.1,0.4-2.2,0.8-3.7c0.5-2.1,1.9-1.9,2.7-1.9
			c1.5,0,2.1,0.4,2.1,0.3c0.1-0.1,0.2-0.4,0.2-0.8c0.1-0.4,0.1-0.8,0-0.9C144.4,58.6,144.1,58.5,143.9,58.4"/>
		<path class="st0" d="M153.5,58.4c-0.5,0-1,0.1-1.5,0.1c-0.8,0-2.3-0.4-3.7-0.1c-1.5,0.3-2.9,1-3.4,3.6c-0.4,2.3,0.9,3.7,2.6,3.7
			c1.2,0,1.9-0.3,2-0.4c0.1-0.1,0.1-0.2,0.2-0.5c0.1-0.2,0.1-0.5,0-0.5c-0.1-0.1-1.2,0.2-1.6-0.1c-0.5-0.3-0.5-0.9-0.2-2.2
			c0.3-1.2,0.8-2.2,1.6-2.4c0.9-0.2,1.8,0.4,1.8,0.4c0,0.1,0.2,0.3-0.1,1.8c-0.3,1.5-1,3.6-0.9,3.7c0.1,0.1,0.7,0.1,1.4,0.1
			c0.7,0,1.4,0,1.4-0.1c0.1-0.1,1.7-6.8,1.4-7.1C154.5,58.5,154.2,58.4,153.5,58.4"/>
		<polygon class="st0" points="86.1,0 86.1,12.2 94.8,12.2 94.8,33.8 86.1,33.8 86.1,45.8 67.3,45.8 67.3,0 		"/>
		<path class="st0" d="M168.9,58.3c-0.9,0-1.7,0.1-2.9,0.7c-0.2,0.1-0.3,0.2-0.4,0.2c-0.1,0-0.3-0.2-0.3-0.2
			c-0.9-0.8-1.7-0.7-2.3-0.7c-0.7,0-2.3,0.5-2.8,0.4c-0.6-0.1-1-0.2-1.5-0.2c-0.5,0-1,0-1.2,0.1c-0.1,0.1-0.4,1.4-0.4,1.6
			c-0.8,4-1.2,5.4-1.1,5.5c0.1,0.1,0.8,0.1,1.5,0.1c0.6,0,1.2,0,1.3-0.1c0.1-0.1,0.4-2,0.7-3.3c0.3-1.2,0.7-2.2,1.6-2.4
			c0.9-0.2,1.6,0.3,1.7,0.6c0.1,0.3,0,1-0.1,1.6c-0.3,1.5-0.9,3.4-0.8,3.5c0,0,0.6,0.1,1.2,0.1h0.3c0.6,0,1.2,0,1.3-0.1
			c0.1-0.1,0.4-2,0.7-3.3c0.3-1.2,0.7-2.2,1.6-2.4c0.9-0.2,1.6,0.3,1.8,0.6c0.1,0.3,0,1-0.1,1.6c-0.3,1.5-0.9,3.4-0.8,3.5
			c0,0.1,0.6,0.1,1.3,0.1c0.7,0,1.4,0,1.4-0.1c0,0,0.3-1.2,0.6-2.5c0.5-2,0.7-3.5,0-4.1C170.5,58.3,169.6,58.3,168.9,58.3"/>
		<path class="st0" d="M175.8,62.5c0,0,0.5,0,2,0c1.8,0,4,0,4.1,0c0-0.1,0.5-1.6-0.1-2.7c-0.7-1.3-3.7-1.7-5.6-1.2
			c-1.4,0.3-2.9,1-3.3,3.6c-0.4,2.3,0.8,3.3,2.5,3.6c1.7,0.3,4.9-0.3,5-0.4c0.1-0.1,0.2-0.4,0.2-0.7c0-0.2,0.1-0.7,0-0.8
			c-0.1-0.1-2.4,0.7-4,0.3c-0.5-0.1-1.1-0.7-1-1.5C175.7,62.6,175.8,62.5,175.8,62.5 M177.4,59.7c2.4-0.5,2.1,1.5,2.1,1.6
			c0,0-3.4,0.1-3.5,0C176,61.2,176.2,59.9,177.4,59.7"/>
		<path class="st0" d="M119,64.2c-0.3,0-0.8-0.1-0.9-0.4c0-0.1-0.3-0.3,0-1.9c0.3-1.5,1.8-7.7,1.7-7.8c-0.1-0.1-0.7-0.1-1.4-0.1
			c-0.7,0-1.4,0-1.4,0.1c-0.1,0.1-1.4,5.8-2,9.1c-0.2,1.2,0.3,2,0.8,2.3c0.4,0.2,1,0.3,1.6,0.3c0.4,0,0.5,0,1.3-0.1
			c0.8-0.1,1.5-0.3,1.6-0.3c0.1-0.1,0.2-0.4,0.2-0.7c0-0.2,0.1-0.7,0-0.8C120.5,63.8,119.8,64.1,119,64.2"/>
		<path class="st0" d="M38.2,58.5c-0.5,0-1,0.1-1.5,0.1c-0.8,0-2.3-0.4-3.7-0.1c-1.5,0.3-2.9,1.1-3.4,3.6c-0.4,2.3,0.9,3.7,2.6,3.7
			c1.2,0,1.9-0.3,2-0.4c0.1-0.1,0.1-0.2,0.2-0.5c0.1-0.2,0.1-0.5,0-0.5c-0.1-0.1-1.2,0.2-1.6-0.1c-0.5-0.3-0.5-0.9-0.2-2.2
			c0.3-1.2,0.8-2.2,1.7-2.4c0.9-0.2,1.8,0.4,1.8,0.4c0,0.1,0.2,0.3-0.1,1.8c-0.9,4.3-1.4,5.7-3.6,6.4c-0.8,0.2-2.3,0-2.5,0.2
			c-0.1,0.1-0.2,0.2-0.3,0.5c-0.1,0.3-0.1,0.6,0,0.7c0.1,0.1,3.9,0.6,6.3-0.8c1-0.6,1.7-2.2,2.1-3.3c0.5-1.6,1.7-6.8,1.4-7.1
			C39.2,58.5,38.8,58.5,38.2,58.5"/>
		<path class="st0" d="M107.6,58.5c-1.4,0.3-2.9,1-3.3,3.6c-0.4,2.3,0.8,3.3,2.5,3.6c1.7,0.3,4.9-0.3,5-0.4c0.1-0.1,0.2-0.4,0.2-0.7
			c0-0.2,0.1-0.7,0-0.8c-0.1-0.1-2.4,0.7-4,0.3c-0.5-0.1-1.1-0.7-1-1.5c0,0,0-0.1,0-0.1c0,0,0.5,0,2,0c1.8,0,4,0,4.1,0
			c0-0.1,0.5-1.6-0.1-2.7C112.5,58.4,109.6,58,107.6,58.5 M110.9,61.3c0,0-3.4,0.1-3.5,0c-0.1-0.1,0.2-1.3,1.4-1.6
			C111.3,59.2,111,61.2,110.9,61.3"/>
		<path class="st0" d="M16.6,58.4c-0.5,0-1,0.1-1.5,0.1c-0.8,0-2.3-0.4-3.7-0.1c-1.5,0.3-2.9,1.1-3.4,3.6c-0.4,2.3,0.9,3.7,2.6,3.7
			c1.2,0,1.9-0.3,2-0.4c0.1-0.1,0.1-0.2,0.2-0.5c0.1-0.2,0.1-0.5,0-0.5c-0.1-0.1-1.2,0.2-1.6-0.1c-0.5-0.3-0.5-0.9-0.2-2.2
			c0.3-1.2,0.8-2.2,1.6-2.4c0.9-0.2,1.8,0.4,1.8,0.4c0,0.1,0.2,0.3-0.1,1.8c-0.3,1.5-1,3.6-0.9,3.7c0.1,0.1,0.7,0.1,1.4,0.1
			c0.7,0,1.4,0,1.4-0.1c0.1-0.1,1.7-6.8,1.4-7.1C17.6,58.5,17.3,58.4,16.6,58.4"/>
	</g>
	<polygon class="st1" points="103.4,0 103.4,12.2 94.8,12.2 94.8,33.8 103.4,33.8 103.4,45.8 122.3,45.8 122.3,0 	"/>
	<path class="st2" d="M121,23.9L121,23.9c-5.2,1.5-5.8-3.9-9.5-3.2c-2.3,0.5-3.5,2.5-5.7,2.5c-2.7,0-3.7-2.5-6-3.3
		c-2.6-1-5.1,2.2-7.5,2.7c-2.6,0.6-4.2-3.1-7.1-2.5c-2.6,0.5-3.6,2.8-6,3.4c-3.6,0.9-4.9-4.9-9.6-1.8c-0.3,0.2-0.6,0.6-0.9,0.8v0.2
		c0.4,0,1.6-0.9,2.5-1.2c2.9-0.7,4.3,2.7,6.7,3.4c3.3,0.9,4.9-3,7.5-2.6c3.2,0.6,3.5,2.9,6.6,3.5c2.4,0.5,4.4-2.6,6.5-3.2
		c2.6-0.7,4.1,2.9,7.2,2.6c2.4-0.3,3.5-2.7,5.8-3.4C115.2,21,116.5,26.5,121,23.9 M121,19.7l-0.1-0.1c-5.2,1.6-5.7-3.9-9.4-3.1
		c-2.3,0.5-3.5,2.5-5.7,2.5c-2.7,0-3.7-2.4-6-3.3c-2.6-0.9-5.1,2.3-7.5,2.8c-2.6,0.5-4.2-3.2-7.1-2.6c-2.6,0.5-3.6,2.8-6,3.5
		c-3.6,0.9-4.9-4.9-9.6-1.8c-0.3,0.2-0.6,0.6-0.9,0.8v0.2c0.4-0.1,1.6-1,2.5-1.1c2.9-0.7,4.3,2.7,6.7,3.3c3.3,0.9,4.9-3,7.5-2.5
		c3.2,0.6,3.5,2.9,6.6,3.5c2.4,0.5,4.4-2.7,6.5-3.2c2.6-0.7,4.1,2.9,7.2,2.6c2.4-0.3,3.5-2.8,5.8-3.4
		C115.2,16.8,116.5,22.3,121,19.7 M68.7,26.9v0.2c0.4-0.1,1.6-1,2.5-1.2c2.9-0.6,4.3,2.8,6.7,3.4c3.3,0.9,4.9-3,7.5-2.6
		c3.2,0.6,3.5,2.9,6.6,3.6c2.4,0.5,4.4-2.6,6.5-3.1c2.6-0.7,4.1,2.9,7.2,2.5c2.4-0.2,3.5-2.7,5.8-3.3c3.6-1.1,4.9,4.4,9.5,1.8
		l-0.1,0c-5.2,1.6-5.7-3.9-9.4-3.1c-2.3,0.5-3.5,2.5-5.7,2.5c-2.7,0-3.7-2.5-6-3.3c-2.6-1-5.1,2.2-7.5,2.8c-2.6,0.6-4.2-3.1-7.1-2.5
		c-2.6,0.5-3.6,2.8-6,3.4c-3.6,0.9-4.9-4.9-9.6-1.7C69.3,26.3,69,26.7,68.7,26.9"/>
</g>
</svg>
